<?xml version="1.0" standalone="no"?>
<!DOCTYPE svg PUBLIC "-//W3C//DTD SVG 20010904//EN"
 "http://www.w3.org/TR/2001/REC-SVG-20010904/DTD/svg10.dtd">
<svg version="1.0" xmlns="http://www.w3.org/2000/svg"
 width="320.000000pt" height="320.000000pt" viewBox="0 0 320.000000 320.000000"
 preserveAspectRatio="xMidYMid meet">
<metadata>
Created by potrace 1.14, written by Peter Selinger 2001-2017
</metadata>
<g transform="translate(0.000000,320.000000) scale(0.100000,-0.100000)"
fill="#000000" stroke="none">
<path d="M2960 3101 c-56 -12 -112 -45 -172 -104 -69 -66 -108 -141 -115 -218
l-6 -57 -51 42 c-115 94 -252 148 -376 149 -90 1 -138 -14 -179 -56 -69 -70
-59 -141 33 -231 42 -42 83 -70 140 -96 130 -60 200 -75 365 -75 l145 0 8 -30
c5 -16 11 -39 14 -50 3 -11 8 -57 11 -103 11 -166 -49 -353 -158 -498 -38 -49
-112 -124 -124 -124 -3 0 -18 -9 -33 -19 -51 -37 -151 -64 -222 -59 -63 5
-180 50 -180 70 0 4 -5 8 -10 8 -12 0 -45 33 -150 150 -41 46 -88 97 -105 113
-67 66 -252 207 -271 207 -4 0 -15 6 -23 14 -20 17 -164 75 -205 82 -17 2 -44
8 -61 13 -34 9 -189 7 -250 -3 -138 -22 -310 -95 -432 -182 -65 -47 -243 -218
-243 -235 0 -4 -6 -14 -13 -21 -17 -18 -67 -96 -67 -104 0 -4 -6 -15 -14 -23
-37 -43 -117 -298 -135 -431 -11 -86 -6 -253 8 -258 7 -2 18 -18 25 -35 38
-87 168 -169 334 -213 85 -22 305 -61 483 -86 134 -18 213 -22 429 -22 270 -1
360 4 510 30 550 95 921 368 1101 810 104 257 123 489 65 801 -10 54 -68 205
-94 247 l-24 39 49 46 c116 108 174 215 176 327 1 72 -29 136 -82 171 -36 24
-44 25 -101 14z"/>
<path d="M830 2985 c-35 -37 -38 -124 -11 -262 21 -108 28 -153 30 -207 0 -16
4 -26 8 -22 4 4 8 82 8 175 l2 168 36 66 c21 36 37 68 37 70 0 3 -7 13 -16 21
-24 24 -67 20 -94 -9z"/>
<path d="M1054 2901 c-82 -51 -129 -174 -149 -386 l-5 -60 33 90 c49 129 62
157 87 184 36 37 82 52 145 46 93 -10 113 7 79 64 -38 65 -135 96 -190 62z"/>
<path d="M513 2865 c-57 -25 -70 -80 -26 -115 23 -18 35 -20 73 -14 68 11 101
7 127 -18 27 -25 83 -138 109 -218 27 -82 37 -84 29 -5 -9 99 -22 150 -55 219
-63 134 -163 192 -257 151z"/>
<path d="M1170 2644 c-137 -37 -252 -152 -249 -251 l0 -28 11 25 c5 14 16 40
24 58 8 17 28 41 46 52 43 27 88 20 198 -32 107 -49 158 -58 183 -30 48 53 20
162 -49 196 -52 24 -101 27 -164 10z"/>
<path d="M430 2614 c-113 -41 -160 -125 -99 -176 42 -35 97 -20 161 44 15 15
73 50 80 48 2 -1 23 -5 48 -11 25 -5 69 -25 97 -44 29 -19 55 -35 58 -35 11 0
-27 62 -61 100 -68 76 -191 107 -284 74z"/>
<path d="M1663 380 c-24 -10 -43 -24 -43 -30 0 -13 13 -13 27 1 7 7 45 14 85
16 69 4 77 2 156 -36 54 -27 82 -36 82 -27 0 18 -64 61 -119 81 -59 20 -137
19 -188 -5z"/>
<path d="M1183 360 c-55 -25 -56 -42 -1 -23 51 17 122 19 163 3 17 -6 53 -29
81 -50 54 -40 104 -61 104 -42 0 6 -39 37 -87 69 -82 54 -91 58 -153 60 -47 2
-76 -3 -107 -17z"/>
<path d="M2323 363 c-31 -12 -10 -28 38 -30 73 -3 146 -32 182 -73 l31 -35
-47 -3 c-25 -2 -62 1 -82 7 -19 5 -35 6 -35 1 0 -41 181 -60 260 -26 43 18
102 61 94 69 -3 3 -42 -8 -86 -24 -86 -32 -108 -32 -108 0 0 33 -64 89 -122
106 -51 15 -101 18 -125 8z"/>
<path d="M495 353 c-46 -9 -141 -46 -157 -61 -29 -25 -21 -34 14 -16 62 32
134 51 203 53 72 1 109 -9 263 -74 68 -28 92 -26 52 6 -86 67 -275 114 -375
92z"/>
<path d="M1189 292 c-14 -9 -46 -30 -70 -46 -57 -38 -135 -73 -179 -82 -67
-12 -154 -3 -204 22 -40 20 -47 7 -11 -21 64 -52 193 -58 296 -14 100 43 209
119 209 146 0 17 -9 16 -41 -5z"/>
<path d="M2220 258 c-78 -31 -188 -43 -237 -25 -39 14 -25 -9 16 -27 46 -21
122 -22 178 -3 52 18 133 65 133 77 0 14 -4 12 -90 -22z"/>
<path d="M1720 207 c-72 -27 -206 -29 -268 -4 -51 20 -52 21 -52 4 0 -8 17
-21 38 -30 116 -51 257 -42 337 21 13 11 21 22 18 26 -8 8 -9 8 -73 -17z"/>
</g>
</svg>
